<?xml version="1.0" standalone="no"?><!DOCTYPE svg PUBLIC "-//W3C//DTD SVG 1.1//EN" "http://www.w3.org/Graphics/SVG/1.1/DTD/svg11.dtd"><svg width="100%" height="100%" viewBox="0 0 44 43" version="1.1" xmlns="http://www.w3.org/2000/svg" xmlns:xlink="http://www.w3.org/1999/xlink" xml:space="preserve" style="fill-rule:evenodd;clip-rule:evenodd;stroke-linejoin:round;stroke-miterlimit:1.41421;"><g id="Layer1"><path d="M22,0c11.866,0 21.5,9.634 21.5,21.5c0,11.866 -9.634,21.5 -21.5,21.5c-11.866,0 -21.5,-9.634 -21.5,-21.5c0,-11.866 9.634,-21.5 21.5,-21.5ZM22,23.621l-8.483,8.483l-2.121,-2.121l8.483,-8.483l-8.483,-8.483l2.121,-2.121l8.483,8.483l8.483,-8.483l2.121,2.121l-8.483,8.483l8.483,8.483l-2.121,2.121l-8.483,-8.483Z" style="fill:#000;"/><path d="M88.663,6.297c8.39,8.391 8.39,22.015 0,30.406c-8.391,8.39 -22.015,8.39 -30.406,0c-8.391,-8.391 -8.391,-22.015 0,-30.406c8.391,-8.39 22.015,-8.39 30.406,0ZM71.96,23l-11.997,0l0,-3l11.997,0l0,-11.997l3,0l0,11.997l11.997,0l0,3l-11.997,0l0,11.997l-3,0l0,-11.997Z" style="fill:#000;"/></g></svg>