<?xml version="1.0" standalone="no"?><!DOCTYPE svg PUBLIC "-//W3C//DTD SVG 1.1//EN" "http://www.w3.org/Graphics/SVG/1.1/DTD/svg11.dtd"><svg width="100%" height="100%" viewBox="0 0 42 27" version="1.1" xmlns="http://www.w3.org/2000/svg" xmlns:xlink="http://www.w3.org/1999/xlink" xml:space="preserve" style="fill-rule:evenodd;clip-rule:evenodd;stroke-linejoin:round;stroke-miterlimit:1.41421;"><g id="Layer1"><g id="googleplus"><path id="Shape" d="M13.499,10.409l0,5.182c0,0 5.019,-0.007 7.062,-0.007c-1.107,3.361 -2.827,5.19 -7.062,5.19c-4.286,0 -7.631,-3.48 -7.631,-7.775c0,-4.293 3.345,-7.773 7.631,-7.773c2.266,0 3.729,0.798 5.072,1.91c1.074,-1.077 0.984,-1.23 3.718,-3.817c-2.321,-2.116 -5.405,-3.406 -8.79,-3.406c-7.214,0 -13.064,5.859 -13.064,13.086c0,7.228 5.85,13.088 13.064,13.088c10.783,0 13.419,-9.407 12.546,-15.678l-12.546,0ZM37.038,10.667l0,-4.534l-3.233,0l0,4.534l-4.657,0l0,3.24l4.657,0l0,4.665l3.233,0l0,-4.665l4.527,0l0,-3.24l-4.527,0Z" style="fill:#000;"/></g></g></svg>