<?xml version="1.0" standalone="no"?><!DOCTYPE svg PUBLIC "-//W3C//DTD SVG 1.1//EN" "http://www.w3.org/Graphics/SVG/1.1/DTD/svg11.dtd"><svg width="100%" height="100%" viewBox="0 0 33 33" version="1.1" xmlns="http://www.w3.org/2000/svg" xmlns:xlink="http://www.w3.org/1999/xlink" xml:space="preserve" style="fill-rule:evenodd;clip-rule:evenodd;stroke-linejoin:round;stroke-miterlimit:1.41421;"><g id="Layer1"><g id="instagram"><path id="Shape" d="M26.083,0.668l-19.835,0c-3.444,0 -6.248,2.802 -6.248,6.249l0,19.835c0,3.446 2.804,6.248 6.248,6.248l19.835,0c3.445,0 6.249,-2.802 6.249,-6.248l0,-19.835c0,-3.447 -2.804,-6.249 -6.249,-6.249ZM27.876,4.396l0.715,-0.004l0,5.481l-5.464,0.017l-0.019,-5.481l4.768,-0.013ZM11.552,13.515c1.034,-1.433 2.715,-2.372 4.614,-2.372c1.899,0 3.579,0.939 4.613,2.372c0.675,0.935 1.078,2.08 1.078,3.319c0,3.137 -2.553,5.69 -5.691,5.69c-3.137,0 -5.69,-2.553 -5.69,-5.69c0,-1.239 0.403,-2.384 1.076,-3.319ZM29.182,26.752c0,1.708 -1.39,3.098 -3.099,3.098l-19.835,0c-1.708,0 -3.098,-1.39 -3.098,-3.098l0,-13.237l4.828,0c-0.418,1.027 -0.652,2.146 -0.652,3.319c0,4.874 3.966,8.842 8.84,8.842c4.876,0 8.841,-3.968 8.841,-8.842c0,-1.173 -0.237,-2.292 -0.652,-3.319l4.827,0l0,13.237Z" style="fill:#000;"/></g></g></svg>