<?xml version="1.0" standalone="no"?><!DOCTYPE svg PUBLIC "-//W3C//DTD SVG 1.1//EN" "http://www.w3.org/Graphics/SVG/1.1/DTD/svg11.dtd"><svg width="100%" height="100%" viewBox="0 0 39 22" version="1.1" xmlns="http://www.w3.org/2000/svg" xmlns:xlink="http://www.w3.org/1999/xlink" xml:space="preserve" style="fill-rule:evenodd;clip-rule:evenodd;stroke-linejoin:round;stroke-miterlimit:1.41421;"><g id="Layer1"><g id="vk"><path id="Shape" d="M21.133,21.687c0,0 0.694,-0.076 1.05,-0.451c0.326,-0.343 0.314,-0.992 0.314,-0.992c0,0 -0.043,-3.029 1.39,-3.476c1.412,-0.44 3.225,2.929 5.149,4.224c1.453,0.98 2.556,0.765 2.556,0.765l5.141,-0.07c0,0 2.689,-0.162 1.414,-2.238c-0.105,-0.17 -0.743,-1.535 -3.821,-4.34c-3.225,-2.937 -2.792,-2.462 1.09,-7.542c2.364,-3.093 3.309,-4.982 3.014,-5.789c-0.281,-0.773 -2.02,-0.568 -2.02,-0.568l-5.787,0.036c0,0 -0.43,-0.058 -0.748,0.129c-0.31,0.183 -0.512,0.61 -0.512,0.61c0,0 -0.915,2.393 -2.137,4.429c-2.577,4.295 -3.607,4.522 -4.028,4.256c-0.981,-0.623 -0.736,-2.498 -0.736,-3.831c0,-4.163 0.644,-5.898 -1.252,-6.347c-0.629,-0.15 -1.092,-0.248 -2.702,-0.265c-2.065,-0.02 -3.812,0.008 -4.802,0.483c-0.659,0.316 -1.167,1.022 -0.857,1.062c0.383,0.05 1.249,0.229 1.708,0.843c0.593,0.793 0.572,2.57 0.572,2.57c0,0 0.341,4.901 -0.796,5.509c-0.78,0.418 -1.849,-0.434 -4.147,-4.332c-1.177,-1.995 -2.066,-4.202 -2.066,-4.202c0,0 -0.171,-0.412 -0.478,-0.634c-0.371,-0.267 -0.888,-0.351 -0.888,-0.351l-5.499,0.035c0,0 -0.827,0.023 -1.13,0.376c-0.269,0.312 -0.02,0.961 -0.02,0.961c0,0 4.305,9.888 9.181,14.871c4.471,4.568 9.546,4.269 9.546,4.269l2.301,0Z" style="fill:#000;"/></g></g></svg>