<?xml version="1.0" standalone="no"?><!DOCTYPE svg PUBLIC "-//W3C//DTD SVG 1.1//EN" "http://www.w3.org/Graphics/SVG/1.1/DTD/svg11.dtd"><svg width="100%" height="100%" viewBox="0 0 22 37" version="1.1" xmlns="http://www.w3.org/2000/svg" xmlns:xlink="http://www.w3.org/1999/xlink" xml:space="preserve" style="fill-rule:evenodd;clip-rule:evenodd;stroke-linejoin:round;stroke-miterlimit:1.41421;"><g id="Layer1"><g id="ok"><path id="Shape" d="M10.976,5.638c2.192,0 3.976,1.77 3.976,3.947c0,2.176 -1.784,3.947 -3.976,3.947c-2.191,0 -3.977,-1.771 -3.977,-3.947c0,-2.177 1.786,-3.947 3.977,-3.947ZM10.976,19.118c5.297,0 9.603,-4.276 9.603,-9.533c0,-5.258 -4.306,-9.535 -9.603,-9.535c-5.297,0 -9.604,4.277 -9.604,9.535c0,5.257 4.307,9.533 9.604,9.533ZM14.886,26.901c1.955,-0.442 3.84,-1.21 5.576,-2.293c1.315,-0.823 1.71,-2.548 0.882,-3.852c-0.827,-1.308 -2.563,-1.702 -3.879,-0.879c-3.934,2.456 -8.999,2.456 -12.93,0c-1.317,-0.823 -3.053,-0.429 -3.879,0.879c-0.828,1.306 -0.433,3.029 0.881,3.852c1.736,1.081 3.622,1.851 5.576,2.293l-5.369,5.331c-1.097,1.09 -1.097,2.859 0.001,3.95c0.55,0.545 1.27,0.817 1.989,0.817c0.721,0 1.441,-0.272 1.991,-0.817l5.274,-5.239l5.278,5.239c1.098,1.091 2.879,1.091 3.977,0c1.1,-1.091 1.1,-2.861 0,-3.95l-5.368,-5.331Z" style="fill:#000;"/></g></g></svg>