<?xml version="1.0" standalone="no"?><!DOCTYPE svg PUBLIC "-//W3C//DTD SVG 1.1//EN" "http://www.w3.org/Graphics/SVG/1.1/DTD/svg11.dtd"><svg width="100%" height="100%" viewBox="0 0 33 28" version="1.1" xmlns="http://www.w3.org/2000/svg" xmlns:xlink="http://www.w3.org/1999/xlink" xml:space="preserve" style="fill-rule:evenodd;clip-rule:evenodd;stroke-linejoin:round;stroke-miterlimit:1.41421;"><g id="Layer1"><g id="twitter"><path id="Shape" d="M28.523,4.381c1.37,-0.864 2.421,-2.235 2.915,-3.869c-1.283,0.803 -2.701,1.383 -4.213,1.698c-1.207,-1.361 -2.932,-2.21 -4.841,-2.21c-3.663,0 -6.631,3.132 -6.631,6.995c0,0.549 0.055,1.083 0.169,1.593c-5.511,-0.292 -10.398,-3.074 -13.671,-7.309c-0.572,1.037 -0.898,2.238 -0.898,3.519c0,2.425 1.171,4.567 2.951,5.824c-1.087,-0.036 -2.11,-0.354 -3.006,-0.875l0,0.086c0,3.391 2.285,6.219 5.323,6.86c-0.558,0.164 -1.142,0.246 -1.75,0.246c-0.427,0 -0.844,-0.042 -1.246,-0.124c0.842,2.778 3.292,4.803 6.196,4.857c-2.272,1.878 -5.132,2.995 -8.238,2.995c-0.535,0 -1.065,-0.03 -1.583,-0.097c2.936,1.984 6.422,3.143 10.168,3.143c12.202,0 18.871,-10.66 18.871,-19.905c0,-0.304 -0.004,-0.607 -0.017,-0.905c1.296,-0.987 2.423,-2.219 3.31,-3.623c-1.19,0.557 -2.469,0.933 -3.809,1.101Z" style="fill:#000;"/></g></g></svg>