<?xml version="1.0" standalone="no"?><!DOCTYPE svg PUBLIC "-//W3C//DTD SVG 1.1//EN" "http://www.w3.org/Graphics/SVG/1.1/DTD/svg11.dtd"><svg width="100%" height="100%" viewBox="0 0 66 16" version="1.1" xmlns="http://www.w3.org/2000/svg" xmlns:xlink="http://www.w3.org/1999/xlink" xml:space="preserve" style="fill-rule:evenodd;clip-rule:evenodd;stroke-linejoin:round;stroke-miterlimit:1.41421;"><g id="Layer1"><path d="M41,8c-3.211,2.015 -5.877,4.682 -8,8c-1.999,-3.186 -4.64,-5.836 -7.922,-7.95l-0.078,-0.05c3.319,-2.123 5.985,-4.789 8,-8c2.106,3.293 4.748,5.943 7.925,7.953l0.075,0.047ZM14,8l-5,4.5c-2.406,-2.092 -5.467,-3.53 -9,-4.5l0.083,-0.023c3.497,-0.969 6.53,-2.401 8.917,-4.477l5,4.5ZM52,8l5,4.5c2.406,-2.092 5.467,-3.53 9,-4.5l-0.083,-0.023c-3.497,-0.969 -6.53,-2.401 -8.917,-4.477l-5,4.5Z" style="fill:#000;"/></g></svg>