<?xml version="1.0" standalone="no"?><!DOCTYPE svg PUBLIC "-//W3C//DTD SVG 1.1//EN" "http://www.w3.org/Graphics/SVG/1.1/DTD/svg11.dtd"><svg width="100%" height="100%" viewBox="0 0 39 39" version="1.1" xmlns="http://www.w3.org/2000/svg" xmlns:xlink="http://www.w3.org/1999/xlink" xml:space="preserve" style="fill-rule:evenodd;clip-rule:evenodd;stroke-linejoin:round;stroke-miterlimit:1.41421;"><g id="Layer1"><path d="M24.5,14.5l11,0l0,-11l-11,0l0,11ZM21.5,17.5l0,-17l17,0l0,17l-17,0Z" style="fill:#000;"/><path d="M24.5,35.5l11,0l0,-11l-11,0l0,11ZM21.5,38.5l0,-17l17,0l0,17l-17,0Z" style="fill:#000;"/><path d="M3.5,14.5l11,0l0,-11l-11,0l0,11ZM0.5,17.5l0,-17l17,0l0,17l-17,0Z" style="fill:#000;"/><path d="M3.5,35.5l11,0l0,-11l-11,0l0,11ZM0.5,38.5l0,-17l17,0l0,17l-17,0Z" style="fill:#000;"/></g></svg>