<?xml version="1.0" standalone="no"?><!DOCTYPE svg PUBLIC "-//W3C//DTD SVG 1.1//EN" "http://www.w3.org/Graphics/SVG/1.1/DTD/svg11.dtd"><svg width="100%" height="100%" viewBox="0 0 45 45" version="1.1" xmlns="http://www.w3.org/2000/svg" xmlns:xlink="http://www.w3.org/1999/xlink" xml:space="preserve" style="fill-rule:evenodd;clip-rule:evenodd;stroke-linecap:round;stroke-linejoin:round;stroke-miterlimit:1.41421;"><g id="Layer1"><circle cx="22.5" cy="22.5" r="20.5" style="fill:none;stroke-width:3px;stroke:#000;"/><path d="M21,34l0,-14.611l-3,0l0,-3l6,0l0,17.611l-3,0Z" style="fill:#000;"/><path d="M18,34l9,0" style="fill:none;stroke-width:2.5px;stroke-linecap:butt;stroke-linejoin:miter;stroke:#000;"/><path d="M21.5,13l-0.064,-0.001l-0.065,-0.002l-0.063,-0.004l-0.063,-0.006l-0.063,-0.007l-0.063,-0.009l-0.061,-0.01l-0.062,-0.012l-0.06,-0.013l-0.06,-0.015l-0.06,-0.016l-0.059,-0.017l-0.058,-0.019l-0.058,-0.021l-0.057,-0.022l-0.057,-0.023l-0.055,-0.024l-0.055,-0.026l-0.055,-0.027l-0.053,-0.028l-0.053,-0.029l-0.052,-0.031l-0.051,-0.032l-0.05,-0.033l-0.05,-0.034l-0.048,-0.036l-0.048,-0.037l-0.047,-0.037l-0.046,-0.039l-0.045,-0.04l-0.043,-0.041l-0.043,-0.042l-0.042,-0.043l-0.041,-0.043l-0.04,-0.045l-0.039,-0.046l-0.037,-0.047l-0.037,-0.048l-0.036,-0.048l-0.034,-0.05l-0.033,-0.05l-0.032,-0.051l-0.031,-0.052l-0.029,-0.053l-0.028,-0.053l-0.027,-0.055l-0.026,-0.055l-0.024,-0.055l-0.023,-0.057l-0.022,-0.057l-0.021,-0.058l-0.019,-0.058l-0.017,-0.059l-0.016,-0.06l-0.015,-0.06l-0.013,-0.06l-0.012,-0.062l-0.01,-0.061l-0.009,-0.063l-0.007,-0.063l-0.006,-0.063l-0.004,-0.063l-0.002,-0.065l-0.001,-0.064l0.001,-0.064l0.002,-0.065l0.004,-0.063l0.006,-0.063l0.007,-0.063l0.009,-0.063l0.01,-0.061l0.012,-0.062l0.013,-0.06l0.015,-0.06l0.016,-0.06l0.017,-0.059l0.019,-0.058l0.021,-0.058l0.022,-0.057l0.023,-0.057l0.024,-0.055l0.026,-0.055l0.027,-0.055l0.028,-0.053l0.029,-0.053l0.031,-0.052l0.032,-0.051l0.033,-0.05l0.034,-0.05l0.036,-0.048l0.037,-0.048l0.037,-0.047l0.039,-0.046l0.04,-0.045l0.041,-0.043l0.042,-0.043l0.043,-0.042l0.043,-0.041l0.045,-0.04l0.046,-0.039l0.047,-0.037l0.048,-0.037l0.048,-0.036l0.05,-0.034l0.05,-0.033l0.051,-0.032l0.052,-0.031l0.053,-0.029l0.053,-0.028l0.055,-0.027l0.055,-0.026l0.055,-0.024l0.057,-0.023l0.057,-0.022l0.058,-0.021l0.058,-0.019l0.059,-0.017l0.06,-0.016l0.06,-0.015l0.06,-0.013l0.062,-0.012l0.061,-0.01l0.063,-0.009l0.063,-0.007l0.063,-0.006l0.063,-0.004l0.065,-0.002l0.064,-0.001l0.064,0.001l0.065,0.002l0.063,0.004l0.063,0.006l0.063,0.007l0.063,0.009l0.061,0.01l0.062,0.012l0.06,0.013l0.06,0.015l0.06,0.016l0.059,0.017l0.058,0.019l0.058,0.021l0.057,0.022l0.057,0.023l0.055,0.024l0.055,0.026l0.055,0.027l0.053,0.028l0.053,0.029l0.052,0.031l0.051,0.032l0.05,0.033l0.05,0.034l0.048,0.036l0.048,0.037l0.047,0.037l0.046,0.039l0.045,0.04l0.043,0.041l0.043,0.042l0.042,0.043l0.041,0.043l0.04,0.045l0.039,0.046l0.037,0.047l0.037,0.048l0.036,0.048l0.034,0.05l0.033,0.05l0.032,0.051l0.031,0.052l0.029,0.053l0.028,0.053l0.027,0.055l0.026,0.055l0.024,0.055l0.023,0.057l0.022,0.057l0.021,0.058l0.019,0.058l0.017,0.059l0.016,0.06l0.015,0.06l0.013,0.06l0.012,0.062l0.01,0.061l0.009,0.063l0.007,0.063l0.006,0.063l0.004,0.063l0.002,0.065l0.001,0.064l-0.001,0.064l-0.002,0.065l-0.004,0.063l-0.006,0.063l-0.007,0.063l-0.009,0.063l-0.01,0.061l-0.012,0.062l-0.013,0.06l-0.015,0.06l-0.016,0.06l-0.017,0.059l-0.019,0.058l-0.021,0.058l-0.022,0.057l-0.023,0.057l-0.024,0.055l-0.026,0.055l-0.027,0.055l-0.028,0.053l-0.029,0.053l-0.031,0.052l-0.032,0.051l-0.033,0.05l-0.034,0.05l-0.036,0.048l-0.037,0.048l-0.037,0.047l-0.039,0.046l-0.04,0.045l-0.041,0.043l-0.042,0.043l-0.043,0.042l-0.043,0.041l-0.045,0.04l-0.046,0.039l-0.047,0.037l-0.048,0.037l-0.048,0.036l-0.05,0.034l-0.05,0.033l-0.051,0.032l-0.052,0.031l-0.053,0.029l-0.053,0.028l-0.055,0.027l-0.055,0.026l-0.055,0.024l-0.057,0.023l-0.057,0.022l-0.058,0.021l-0.058,0.019l-0.059,0.017l-0.06,0.016l-0.06,0.015l-0.06,0.013l-0.062,0.012l-0.061,0.01l-0.063,0.009l-0.063,0.007l-0.063,0.006l-0.063,0.004l-0.065,0.002l-0.064,0.001Z" style="fill:#000;"/></g></svg>